<?xml version="1.0" encoding="UTF-8"?>
<svg width="24px" height="24px" viewBox="0 0 24 24" version="1.1" xmlns="http://www.w3.org/2000/svg" xmlns:xlink="http://www.w3.org/1999/xlink">
    <title>simplelocalize-logo-icon-dark@svg</title>
    <defs>
        <linearGradient x1="50%" y1="19.5083027%" x2="50%" y2="96.6311273%" id="linearGradient-1">
            <stop stop-color="#191C24" offset="0%"></stop>
            <stop stop-color="#1D2028" offset="100%"></stop>
        </linearGradient>
        <linearGradient x1="50%" y1="19.5083027%" x2="50%" y2="96.6311273%" id="linearGradient-2">
            <stop stop-color="#FDFDFD" offset="0%"></stop>
            <stop stop-color="#FDFDFD" offset="100%"></stop>
        </linearGradient>
        <linearGradient x1="50%" y1="19.5083027%" x2="50%" y2="96.6311273%" id="linearGradient-3">
            <stop stop-color="#191C24" offset="0%"></stop>
            <stop stop-color="#1D2028" offset="100%"></stop>
        </linearGradient>
        <linearGradient x1="50%" y1="19.5083027%" x2="50%" y2="96.6311273%" id="linearGradient-4">
            <stop stop-color="#FDFDFD" offset="0%"></stop>
            <stop stop-color="#FDFDFD" offset="100%"></stop>
        </linearGradient>
    </defs>
    <g id="simplelocalize-logo-icon-dark" stroke="none" stroke-width="1" fill="none" fill-rule="evenodd">
        <g id="Group-2" transform="translate(0.1308, 1.6633)">
            <path d="M22.4926879,15.1303935 C21.4249021,16.4072866 16.6940144,19.0718936 10.3649371,20.6203805 C8.51873094,21.0720776 14.1108944,16.7056614 11.2099544,16.7056614 C8.30901435,16.7056614 23.5604738,13.8535004 22.4926879,15.1303935 Z" id="Rectangle" fill="url(#linearGradient-2)"></path>
            <path d="M19.9657932,7.26663778 C21.0543865,7.49022663 21.9574246,8.03677735 22.6749064,8.90628938 C23.3923883,9.7758014 23.7511295,10.7819512 23.7511295,11.9247389 C23.7511295,12.7942509 23.5408328,13.5954443 23.1202401,14.3283191 C22.6996474,15.0611939 22.1244247,15.6387984 21.3945721,16.0611327 C20.6647195,16.483467 19.86683,16.6946345 19.0009036,16.6946345 L5.34400413,16.6946345 C4.3791145,16.6946345 3.48844714,16.4524132 2.67200207,15.9679707 C1.85555699,15.4835282 1.20611204,14.831394 0.723667226,14.0115682 C0.241222409,13.1917424 0,12.297387 0,11.328502 C0,10.1608715 0.334000258,9.11745682 1.00200077,8.198258 C1.67000129,7.27905919 2.52355751,6.63313602 3.56266942,6.26048793 L3.56266942,5.96236946 C3.56266942,4.89411141 3.82863278,3.90038354 4.36055893,2.98118473 C4.89248507,2.06198591 5.6161523,1.33532214 6.5315606,0.801193396 C7.44696891,0.267064655 8.4427843,0 9.51900736,0 C10.5952304,0 11.5910458,0.273275077 12.5064541,0.8198258 C13.4218624,1.36637652 14.1393443,2.08682931 14.6589002,2.98118473 C15.2526785,2.58369324 15.9083088,2.38494778 16.6257906,2.38494778 C17.6154212,2.38494778 18.4566067,2.73275248 19.1493481,3.42836244 C19.8420896,4.1239724 20.18846,4.96864103 20.18846,5.96236946 C20.18846,6.40954717 20.1142378,6.84430346 19.9657932,7.26663778 Z" id="cloud" fill="url(#linearGradient-4)"></path>
        </g>
    </g>
</svg>